<?xml version="1.0" standalone="no"?>
<!DOCTYPE svg PUBLIC "-//W3C//DTD SVG 20010904//EN"
 "http://www.w3.org/TR/2001/REC-SVG-20010904/DTD/svg10.dtd">
<svg version="1.0" xmlns="http://www.w3.org/2000/svg"
 width="295.000000pt" height="294.000000pt" viewBox="0 0 295.000000 294.000000"
 preserveAspectRatio="xMidYMid meet">

<g transform="translate(0.000000,294.000000) scale(0.100000,-0.100000)"
fill="#000000" stroke="none">
<path d="M1476 2894 c-3 -26 -6 -75 -6 -110 0 -57 2 -64 20 -64 19 0 20 7 20
100 0 55 0 103 1 108 0 4 -6 8 -14 10 -10 2 -16 -11 -21 -44z"/>
<path d="M1313 2823 c5 -59 10 -109 11 -109 0 -1 27 1 59 3 44 4 57 9 57 22 0
13 -8 16 -39 13 l-39 -4 -6 54 c-3 29 -7 69 -9 88 -1 27 -7 36 -22 38 -20 3
-20 0 -12 -105z"/>
<path d="M1625 2916 c-78 -35 -85 -170 -10 -202 67 -28 126 21 127 105 1 58
-11 82 -48 97 -39 16 -32 16 -69 0z m63 -38 c17 -17 15 -89 -4 -116 -31 -45
-74 -21 -74 43 0 66 44 107 78 73z"/>
<path d="M1117 2890 c-68 -54 -25 -200 58 -200 39 0 80 30 89 65 9 36 -11 103
-39 131 -30 30 -73 31 -108 4z m93 -50 c27 -51 4 -131 -34 -117 -25 10 -50 57
-50 94 0 62 55 77 84 23z"/>
<path d="M1866 2783 c-13 -85 -14 -108 -4 -115 24 -15 33 -8 72 52 21 33 39
60 41 60 1 0 -4 -32 -12 -72 -13 -72 -9 -88 22 -87 11 0 125 162 125 178 0 6
-8 11 -18 11 -12 0 -32 -23 -57 -65 -21 -36 -39 -64 -40 -63 -2 2 3 36 11 77
11 60 12 76 2 83 -21 13 -24 11 -68 -57 -23 -36 -43 -65 -45 -65 -1 0 5 34 13
76 13 65 13 77 1 85 -8 5 -17 9 -20 9 -3 0 -14 -48 -23 -107z"/>
<path d="M940 2840 c-26 -11 -44 -24 -42 -32 5 -22 65 -172 72 -181 4 -4 14
-5 23 -1 15 5 15 9 2 41 -20 48 -19 53 15 64 17 6 30 15 30 20 0 16 -28 21
-50 9 -18 -10 -24 -9 -31 1 -17 27 -9 47 22 58 17 6 29 16 27 23 -6 18 -19 18
-68 -2z"/>
<path d="M776 2757 c-63 -34 -73 -54 -26 -49 27 2 33 -4 59 -55 41 -81 53 -95
71 -83 12 7 8 22 -27 87 l-42 79 25 15 c20 12 23 18 12 27 -10 8 -28 3 -72
-21z"/>
<path d="M2125 2674 c-27 -47 -50 -88 -50 -91 0 -4 22 -20 49 -36 39 -24 50
-27 57 -16 6 9 4 17 -7 24 -48 30 -49 32 -36 59 12 26 12 26 43 10 24 -12 34
-13 43 -4 8 9 8 14 -1 17 -7 3 -22 12 -33 21 -18 15 -19 19 -7 36 13 18 15 18
47 1 26 -14 34 -14 41 -4 6 10 -5 22 -36 41 -25 16 -48 28 -52 28 -5 0 -30
-39 -58 -86z"/>
<path d="M625 2664 c-67 -35 -68 -40 -24 -103 73 -104 84 -115 102 -105 15 9
14 13 -8 46 -13 19 -21 38 -18 42 13 12 40 6 58 -14 19 -21 50 -26 60 -10 8
13 -45 59 -68 60 -13 0 -16 5 -11 24 4 19 -1 32 -20 50 -29 30 -32 31 -71 10z
m43 -36 c17 -17 15 -48 -4 -55 -11 -4 -23 2 -35 18 -17 22 -17 25 -2 37 21 15
26 15 41 0z"/>
<path d="M2260 2579 l-63 -81 24 -20 c58 -46 70 -51 82 -39 9 10 6 17 -15 33
-16 11 -28 24 -28 30 0 6 23 39 50 74 48 61 55 84 26 84 -8 0 -42 -37 -76 -81z"/>
<path d="M449 2530 c-23 -13 -42 -65 -35 -94 17 -70 102 -119 157 -90 53 27
63 74 28 131 -33 54 -105 79 -150 53z m102 -62 c51 -52 30 -113 -31 -88 -57
23 -90 98 -54 118 24 13 51 4 85 -30z"/>
<path d="M2384 2476 c-47 -47 -48 -103 -3 -148 22 -23 33 -28 41 -20 9 9 6 18
-10 35 -38 40 -25 95 28 122 33 17 72 8 88 -21 9 -17 32 -12 32 7 0 6 -12 21
-26 34 -20 19 -38 25 -71 25 -38 0 -51 -6 -79 -34z"/>
<path d="M312 2363 c-11 -10 -27 -30 -36 -44 l-16 -25 85 -63 c47 -34 90 -59
95 -56 17 11 11 29 -17 51 -25 20 -26 25 -15 43 42 69 -36 146 -96 94z m67
-42 c7 -13 6 -23 -2 -35 -12 -16 -15 -16 -40 4 -22 18 -25 25 -16 36 16 20 46
17 58 -5z"/>
<path d="M2522 2350 c-42 -26 -69 -81 -56 -117 25 -71 104 -80 169 -19 92 87
-3 203 -113 136z m109 -36 c11 -13 11 -20 -2 -42 -21 -38 -83 -70 -106 -56
-30 19 -27 52 7 84 36 33 80 39 101 14z"/>
<path d="M2661 2159 c-52 -22 -96 -40 -98 -42 -2 -2 -1 -11 3 -20 5 -14 11
-13 52 5 96 41 99 41 39 -14 -77 -71 -69 -85 37 -65 42 7 76 12 76 11 0 -2
-21 -15 -47 -28 -69 -35 -85 -49 -78 -68 6 -14 17 -10 78 24 123 70 119 66
106 90 -11 21 -28 22 -129 2 l-35 -7 57 54 c52 49 57 56 45 75 -12 21 -12 21
-106 -17z"/>
<path d="M176 2163 c-4 -9 1 -25 12 -37 51 -59 51 -60 0 -54 -43 5 -68 -4 -68
-24 0 -4 29 -8 65 -8 46 0 78 -6 106 -20 22 -12 44 -18 49 -15 20 12 9 33 -27
49 -23 10 -54 39 -78 71 -44 59 -50 63 -59 38z"/>
<path d="M86 1954 c-11 -29 -6 -35 59 -75 36 -23 65 -42 65 -43 0 0 -35 0 -79
2 -75 3 -79 2 -84 -20 -4 -12 -3 -26 1 -29 14 -13 193 -72 198 -66 15 15 -9
34 -70 56 -36 13 -66 24 -66 25 0 0 36 0 80 -2 73 -4 80 -2 80 14 0 12 -24 34
-67 62 -74 46 -73 49 7 27 73 -20 92 -19 88 2 -2 13 -24 22 -78 34 -127 29
-128 29 -134 13z"/>
<path d="M2758 1911 c-48 -15 -90 -29 -93 -33 -3 -3 1 -31 10 -61 12 -41 20
-54 31 -50 17 6 17 8 5 50 -9 29 -7 32 19 42 27 9 30 8 40 -25 18 -54 46 -42
31 14 -8 26 -6 31 12 36 27 7 34 1 42 -35 5 -21 11 -29 22 -25 8 3 16 6 18 6
1 0 -5 25 -14 55 -9 30 -20 54 -26 54 -5 -1 -49 -13 -97 -28z"/>
<path d="M2892 1683 c3 -27 1 -28 -62 -36 -103 -13 -110 -15 -110 -38 0 -15 5
-19 18 -15 9 2 49 8 88 11 71 7 71 7 78 -19 4 -15 13 -26 23 -26 13 0 15 8 9
46 -3 26 -6 60 -6 75 0 23 -5 29 -21 29 -16 0 -20 -5 -17 -27z"/>
<path d="M73 1622 c-54 -16 -78 -70 -57 -127 10 -25 58 -45 109 -45 81 0 129
71 89 129 -28 40 -88 58 -141 43z m98 -52 c11 -6 19 -21 19 -35 0 -29 -26 -45
-72 -45 -60 0 -98 46 -66 78 15 15 92 16 119 2z"/>
<path d="M2754 1486 c-38 -32 -38 -90 1 -123 30 -26 105 -32 149 -12 52 24 55
108 4 143 -36 26 -121 21 -154 -8z m137 -26 c11 -6 19 -21 19 -35 0 -29 -26
-45 -75 -45 -20 0 -45 5 -56 10 -24 13 -25 56 -1 69 22 14 88 14 113 1z"/>
<path d="M16 1328 c4 -40 8 -74 9 -76 1 -1 10 0 19 4 12 5 16 14 12 30 -6 21
-3 23 62 29 100 9 112 13 112 35 0 16 -5 19 -22 16 -13 -3 -53 -7 -90 -11 -64
-5 -67 -4 -70 17 -2 13 -11 24 -21 26 -16 3 -17 -3 -11 -70z"/>
<path d="M2712 1223 c2 -10 27 -25 68 -39 l65 -22 -75 -3 c-99 -5 -103 -22
-15 -73 36 -21 65 -40 63 -41 -2 -2 -32 3 -67 11 -66 16 -96 13 -89 -8 5 -13
203 -60 213 -50 3 3 5 15 5 27 0 15 -17 31 -65 59 -36 21 -65 39 -65 39 0 1
34 2 75 2 74 0 94 8 95 40 0 9 -181 76 -203 75 -5 0 -7 -7 -5 -17z"/>
<path d="M231 1191 c-11 -7 -11 -15 -2 -42 9 -25 8 -34 -1 -41 -26 -16 -46 -8
-57 22 -5 17 -17 30 -25 30 -19 0 -20 -9 -6 -45 8 -22 7 -27 -13 -34 -28 -11
-34 -7 -42 29 -4 18 -13 30 -22 30 -17 0 -15 -40 6 -92 l10 -26 96 28 c53 16
99 31 102 33 4 5 -24 117 -30 117 -1 0 -8 -4 -16 -9z"/>
<path d="M204 986 c-87 -48 -91 -51 -81 -74 9 -19 16 -23 41 -18 17 3 51 8 76
12 l45 7 -44 -39 c-25 -22 -51 -44 -59 -50 -12 -8 -12 -15 -3 -32 6 -12 15
-22 19 -22 8 0 184 69 190 75 1 1 0 9 -4 18 -5 13 -15 11 -76 -14 -39 -16 -73
-29 -75 -29 -2 0 23 23 57 51 86 71 77 82 -50 66 l-55 -7 67 38 c58 33 66 40
55 54 -10 13 -23 9 -103 -36z"/>
<path d="M2616 944 c-3 -9 -6 -17 -6 -18 0 -2 17 -11 38 -20 23 -10 56 -41 82
-73 41 -53 44 -55 54 -34 8 18 4 27 -24 56 l-33 34 54 3 c44 2 55 7 57 22 4
18 -1 19 -58 13 -50 -6 -71 -3 -107 13 -54 24 -49 24 -57 4z"/>
<path d="M2516 773 c-7 -16 26 -52 47 -53 4 0 1 -13 -8 -30 -21 -40 -19 -63 8
-88 42 -40 91 -22 126 45 10 20 4 26 -73 82 -46 34 -86 61 -89 61 -3 0 -8 -8
-11 -17z m113 -103 c19 -17 21 -23 11 -36 -28 -33 -72 0 -56 42 7 19 16 17 45
-6z"/>
<path d="M334 761 c-67 -41 -85 -111 -39 -156 44 -45 136 -20 170 45 22 43 18
68 -14 101 -35 34 -72 37 -117 10z m90 -27 c34 -13 13 -75 -34 -99 -88 -46
-123 33 -38 85 35 21 47 24 72 14z"/>
<path d="M515 639 c-4 -6 2 -21 14 -33 28 -30 27 -71 -4 -101 -30 -31 -71 -32
-102 -3 -19 17 -26 19 -36 9 -18 -18 43 -71 84 -71 89 0 151 100 103 168 -20
29 -51 45 -59 31z"/>
<path d="M2393 615 c-53 -22 -65 -92 -25 -140 49 -60 116 -72 157 -30 72 71
-36 210 -132 170z m90 -66 c31 -33 35 -74 10 -87 -25 -13 -55 0 -86 38 -31 36
-34 65 -9 79 24 14 52 4 85 -30z"/>
<path d="M635 510 c-3 -5 6 -21 22 -34 31 -28 33 -23 -35 -110 -41 -52 -47
-76 -19 -76 7 0 41 37 76 81 l63 82 -38 33 c-41 35 -59 41 -69 24z"/>
<path d="M2263 492 c-10 -6 -7 -16 12 -42 37 -50 9 -70 -42 -30 -29 23 -32 23
-52 11 -11 -7 -8 -14 15 -35 16 -14 37 -28 47 -31 11 -4 17 -17 17 -35 0 -20
8 -35 24 -46 23 -14 28 -14 59 1 74 35 74 42 6 133 -63 85 -66 87 -86 74z m81
-134 c14 -19 14 -24 2 -37 -28 -27 -71 14 -46 44 17 20 26 19 44 -7z"/>
<path d="M757 417 c-3 -8 7 -21 24 -31 32 -19 34 -27 19 -57 -11 -19 -12 -19
-40 -2 -22 13 -33 14 -41 6 -8 -8 -4 -16 15 -28 27 -18 31 -31 17 -54 -7 -11
-14 -10 -40 5 -24 14 -33 16 -43 6 -6 -6 -10 -13 -7 -15 23 -16 90 -57 93 -57
5 0 41 55 95 142 l22 38 -47 30 c-54 34 -60 35 -67 17z"/>
<path d="M2083 383 c-20 -7 -16 -19 28 -95 l42 -71 -24 -18 c-18 -13 -21 -21
-13 -29 9 -9 27 -3 70 21 33 18 60 33 62 34 1 1 0 9 -4 18 -5 13 -10 14 -30 5
-13 -6 -26 -9 -28 -7 -1 2 -22 37 -45 77 -23 39 -43 72 -44 71 -1 0 -8 -3 -14
-6z"/>
<path d="M872 241 c-49 -71 -58 -90 -46 -95 22 -9 29 -3 70 64 20 33 38 60 39
60 1 0 -5 -34 -13 -76 -13 -65 -13 -77 -1 -85 21 -13 21 -13 63 51 21 33 41
62 45 64 4 3 0 -29 -8 -70 -14 -66 -14 -76 -1 -84 8 -5 18 -6 22 -2 9 10 38
203 32 213 -14 23 -42 4 -78 -51 -22 -33 -41 -59 -42 -57 -1 1 4 33 12 71 8
37 12 72 8 77 -15 26 -44 3 -102 -80z"/>
<path d="M1973 323 c-10 -3 -9 -13 2 -40 20 -48 19 -51 -15 -65 -22 -10 -27
-17 -21 -27 8 -12 14 -13 36 -3 31 14 40 10 48 -19 4 -16 -1 -24 -28 -35 -24
-10 -33 -19 -29 -29 4 -10 13 -13 27 -9 31 10 87 34 87 37 0 15 -78 191 -85
193 -6 1 -16 0 -22 -3z"/>
<path d="M1736 239 c-22 -17 -26 -28 -26 -70 0 -114 82 -168 151 -100 31 32
37 68 18 118 -27 71 -90 94 -143 52z m81 -31 c12 -13 24 -39 28 -60 6 -29 3
-40 -14 -57 -17 -17 -25 -19 -42 -11 -39 22 -55 120 -21 139 24 14 26 14 49
-11z"/>
<path d="M1272 223 c-36 -14 -57 -138 -29 -174 51 -67 146 -34 163 56 7 42
-11 102 -36 115 -19 10 -76 12 -98 3z m86 -56 c19 -40 -3 -111 -36 -115 -39
-6 -55 16 -50 70 3 26 11 54 18 63 19 23 53 14 68 -18z"/>
<path d="M1583 223 c-45 -3 -53 -7 -53 -24 0 -17 5 -18 39 -13 l39 6 6 -46 c3
-25 9 -66 12 -91 4 -37 9 -45 25 -45 18 0 20 5 15 37 -3 21 -8 71 -12 111 -3
39 -9 71 -13 70 -3 -1 -30 -3 -58 -5z"/>
<path d="M1460 110 c0 -103 1 -110 20 -110 19 0 20 7 20 110 0 103 -1 110 -20
110 -19 0 -20 -7 -20 -110z"/>
</g>
</svg>
